<svg id="Layer_1" data-name="Layer 1" xmlns="http://www.w3.org/2000/svg" xmlns:xlink="http://www.w3.org/1999/xlink" viewBox="0 0 297.63 357.51"><defs><linearGradient id="linear-gradient" x1="151.47" y1="135.18" x2="165.11" y2="307.87" gradientUnits="userSpaceOnUse"><stop offset="0" stop-opacity="0"/><stop offset="0.99"/></linearGradient><linearGradient id="linear-gradient-2" x1="137.87" y1="33.69" x2="193.05" y2="248.58" xlink:href="#linear-gradient"/><linearGradient id="linear-gradient-3" x1="400.54" y1="-127.63" x2="-38.33" y2="399.53" gradientUnits="userSpaceOnUse"><stop offset="0.02" stop-color="#fff" stop-opacity="0"/><stop offset="0.58" stop-color="#fff" stop-opacity="0.39"/><stop offset="0.68" stop-color="#fff" stop-opacity="0.68"/><stop offset="1" stop-color="#fff"/></linearGradient><linearGradient id="linear-gradient-4" x1="-65.94" y1="87.61" x2="572.89" y2="333.02" xlink:href="#linear-gradient"/><linearGradient id="linear-gradient-5" x1="215.1" y1="112.6" x2="243.69" y2="112.6" gradientUnits="userSpaceOnUse"><stop offset="0" stop-color="#e5c5d5"/><stop offset="0.42" stop-color="#ead4d1"/><stop offset="1" stop-color="#f0e9cb"/></linearGradient><linearGradient id="linear-gradient-6" x1="119.13" y1="87.75" x2="134.35" y2="87.75" xlink:href="#linear-gradient-5"/><linearGradient id="linear-gradient-7" x1="233.06" y1="63.45" x2="245.94" y2="63.45" xlink:href="#linear-gradient-5"/><linearGradient id="linear-gradient-8" x1="298.98" y1="289.59" x2="255.15" y2="277.42" xlink:href="#linear-gradient"/></defs><title>Open Maps</title><path d="M79.93,147.14c-6.61,5.72-14.09,10.39-20.57,16.26a73.1,73.1,0,0,0,17.32,120c13.91,6.72,29.56,8.86,44.1,14.1,19.37,7,36.88,19.49,57.2,22.85,24.24,4,49.13-5.93,68.3-21.3s33.55-35.76,47.48-56c11.87-17.23,23.7-34.75,31.32-54.24s10.79-41.38,4.88-61.45c-5.61-19-19-35.06-34.62-47.27s-33.62-21-51.45-29.76C230.67,43.85,217,37.25,202.25,36.63c-25.64-1.06-59.59,18.76-77.75,36.19-9.23,8.86-11.45,23.63-16.72,35C101,122.5,92.26,136.45,79.93,147.14Z" transform="translate(-35.4 -8.88)" fill="#6cd956" opacity="0.18" style="isolation:isolate"/><polygon points="74.82 239.08 43.07 320.9 165.44 262.13 194.06 183.11 74.82 239.08" fill="#6cd956"/><path d="M110.22,248c-.62-1.86-21.12-53.42-21.12-53.42l119.26-50.31,14.91,50.93Z" transform="translate(-35.4 -8.88)" fill="#6cd956"/><path d="M110.22,248c-.62-1.86-21.12-53.42-21.12-53.42l119.26-50.31,14.91,50.93Z" transform="translate(-35.4 -8.88)" fill="url(#linear-gradient)"/><polygon points="89.91 138.14 53.7 185.66 172.97 135.35 205.15 87.83 89.91 138.14" fill="#6cd956"/><polygon points="85.86 68.28 82.45 36.87 204 0 204.59 46.82 205.15 87.83 89.91 138.14 85.86 68.28" fill="#6cd956"/><polygon points="85.86 68.28 82.45 36.87 204 0 204.59 46.82 205.15 87.83 89.91 138.14 85.86 68.28" fill="url(#linear-gradient-2)"/><path d="M126.66,51.92,133.14,142S100,187.71,99.34,189.7s18.55,51,18.55,51-26.51,75.55-25.84,73.56,108-51.69,108-51.69L208.69,199l-17.23-44.4,41.75-57.66-.69-77.66Z" transform="translate(-35.4 -8.88)" fill="url(#linear-gradient-3)"/><path d="M147,155.19c-9-12.89-21.41-27-17.11-42.13a195.85,195.85,0,0,0,58.25,31.83c8.13-10.12-9.74-25.36-3.86-36.92a10.14,10.14,0,0,1,19.17,4.65,28.85,28.85,0,0,0,21.76-11.79c.53,17.49-13.06,31.69-24.61,44.84-1.51,1.72-3.07,3.61-3.29,5.88-.18,1.88.59,3.71,1.3,5.47,14.3,35.29,8.82,75.09,3.11,112.74,0,4.6-27.79,13.49-32.41,5.77-5.09-8.52,1.34-30.2,1.22-40C170.2,207.22,163.41,178.59,147,155.19Z" transform="translate(-35.4 -8.88)" opacity="0.44" fill="url(#linear-gradient-4)"/><path d="M135.72,91.13a21,21,0,0,0-7.5,4.06,9,9,0,0,0-3.09,7.66,13.79,13.79,0,0,0,2.61,5.39c12.89,18.92,26.51,38.53,46.54,49.62,7.1,3.92,14.82,6.66,21.79,10.8s13.41,10.05,15.7,17.83c3,10.06-1.37,21.73,3.58,31a8.39,8.39,0,0,0,2.86,3.32,11.1,11.1,0,0,0,4.94,1.22c11.89,1,24.36,1.76,35.27-3.08a10.17,10.17,0,0,0,4.19-2.92,11.67,11.67,0,0,0,1.77-4.66,192.81,192.81,0,0,0,2.73-66.16c-3.65-27.47-6-58.4-20.13-82.23-4.34,7.42-2.15,16.73-.66,25.2,1.11,6.36,1.75,12.79,2.39,19.22.54,5.37,1,11.14-1.64,15.85-1.84,3.27-5,5.62-8.25,7.45-8.63,4.82-18.6,6.63-28.41,7.86-9.61,1.21-19.83,1.84-28.57-2.35-6.07-2.92-10.85-7.9-15.49-12.78C156,112.57,146,102,135.72,91.13Z" transform="translate(-35.4 -8.88)" fill="#fff"/><path d="M216.42,105.31a25.11,25.11,0,0,0-1.17,4.15,12.94,12.94,0,0,0,6.12,12.92,21.37,21.37,0,0,1,3,1.77,7.69,7.69,0,0,1,2.48,5.45,23.39,23.39,0,0,1-.67,6.1c-.1.5-.12,1.17.35,1.38a1.14,1.14,0,0,0,.45.06,23.48,23.48,0,0,0,12.33-3.56,8.79,8.79,0,0,0,2.94-2.71c1.17-2,1-4.4.89-6.68-.18-6,.85-12,.47-18s-2.53-12.32-7.51-15.68a14.74,14.74,0,0,0-7.19-2.37c-1.73-.13-5.31-.32-6.72.91-.77.68-1,2.45-1.33,3.38q-.78,2.25-1.55,4.5Z" transform="translate(-35.4 -8.88)" fill="url(#linear-gradient-5)"/><path d="M231.57,75.89c5.29.48,10.82.2,15.67,2.38,7.15,3.22,11.16,11.28,11.62,19.1a25.35,25.35,0,0,1-4.36,16.3,18.51,18.51,0,0,1-14.6,7.86c-2.86,0-6.15-1.21-6.93-4a6.82,6.82,0,0,1,1-5c.71-1.29,1.63-2.67,1.34-4.11a3.63,3.63,0,0,0-3-2.58,10.52,10.52,0,0,0-4.13.29c.74-3.43,1.42-7.24-.35-10.27-2.51-4.28-8.81-5.1-11.36-9.36-1-1.75-.91-4.58,1-5.19a3.08,3.08,0,0,0,1.05-.39c.58-.52.23-1.45-.09-2.16-.68-1.51-1.51-4.32-.85-6,1-2.51,1.3-1.37,3.21-.3A26,26,0,0,0,231.57,75.89Z" transform="translate(-35.4 -8.88)" fill="#3e3e54"/><path d="M105.49,191.79" transform="translate(-35.4 -8.88)" fill="none" stroke="#6cd956" stroke-miterlimit="10" stroke-width="0.95"/><path d="M128.69,81.46a6.87,6.87,0,0,0-1-2,2.08,2.08,0,0,0-2-.75,1.25,1.25,0,0,0-.76,1.78,14,14,0,0,1-1.52-2,2.71,2.71,0,0,0-2.09-1.29,2.29,2.29,0,0,0-2,1.8,6.78,6.78,0,0,0,0,2.87,27,27,0,0,1,.5,6.94c-.2,2-.85,4.09-.35,6.06.6,2.45,3.51,4.3,5.77,3.18a8.65,8.65,0,0,0,2.23-2c2-2.08,4.35-3.18,6.88-4.43-.52-1.59-2.12-3.22-3-4.73A41.92,41.92,0,0,1,128.69,81.46Z" transform="translate(-35.4 -8.88)" fill="url(#linear-gradient-6)"/><path d="M244.52,58a9.88,9.88,0,0,0-4.07-5.43L240,55.7a1.66,1.66,0,0,1-.27.81,1.23,1.23,0,0,1-.52.38,8.47,8.47,0,0,1-3.1.42,3.35,3.35,0,0,0-2.74,1.26,2.92,2.92,0,0,0,.26,2.94,5.48,5.48,0,0,0,1.65,1.74,20.38,20.38,0,0,1,2.81,1.7c1.41,1.3,1.55,3.42,1.93,5.29s1.51,4,3.42,4.08c1.09-1,1.26-2.61,1.37-4.08.15-2.09,1-4.09,1.13-6.14S245.15,59.81,244.52,58Z" transform="translate(-35.4 -8.88)" fill="url(#linear-gradient-7)"/><path d="M277.89,326.47c1.7,3.16,1.18,7.2.34,10.7s-3.59,6.81-7.17,7.05c-5.26.35-6.82-6.57-10.52-10.32-13.34-13.54-20.44-24.6-22.38-38.26-1.22-8.67-1.14-17.58-3.62-26-1.93-6.53-5.36-12.52-7.35-19-2.73-8.88-2.68-18.33-2.62-27.62q9.6-1,19.12-2.67c3.73-.64,15.1-5,18.43-3.68,5.79,2.38,3.77,27.63,3.11,34.11C262.29,279.46,262.29,297.48,277.89,326.47Z" transform="translate(-35.4 -8.88)" fill="#3e3e54"/><path d="M277.89,326.47c1.7,3.16,1.18,7.2.34,10.7s-3.59,6.81-7.17,7.05c-5.26.35-6.82-6.57-10.52-10.32-13.34-13.54-20.44-24.6-22.38-38.26-1.22-8.67-1.14-17.58-3.62-26-1.93-6.53-5.36-12.52-7.35-19-2.73-8.88-2.68-18.33-2.62-27.62q9.6-1,19.12-2.67c3.73-.64,15.1-5,18.43-3.68,5.79,2.38,3.77,27.63,3.11,34.11C262.29,279.46,262.29,297.48,277.89,326.47Z" transform="translate(-35.4 -8.88)" fill="url(#linear-gradient-8)"/><path d="M206.51,355.07c.44-12,4.71-12.2,6.28-24.15.74-5.66.52-11.47,1.89-17a56.23,56.23,0,0,1,4.69-11.5c11.65-23.19,29.71-41.1,34.9-66.53.68-3.34,2.32-17.54,2.54-18.63,0,0-17.63,3.37-21,3.28l-15.71-.42a9,9,0,0,0-4.17.55,8.09,8.09,0,0,0-3.36,3.88c-4.58,9.1-4.67,19.68-6.19,29.75-2.72,18.09-10.23,35.15-13.52,53.15-1.29,7.12-1.92,14.34-2.55,21.54-.78,9,0,7-.8,16a6.3,6.3,0,0,0,.38,3.53,6.22,6.22,0,0,0,2.4,2.14C196.79,353.51,201.55,357,206.51,355.07Z" transform="translate(-35.4 -8.88)" fill="#3e3e54"/><path d="M237.3,40.55" transform="translate(-35.4 -8.88)" fill="none" stroke="#6cd956" stroke-miterlimit="10" stroke-width="1.24"/><path d="M172.87,357c-.1,2.42,2.56,3.9,4.85,4.69a91.15,91.15,0,0,0,21.72,4.69,5.72,5.72,0,0,0,1.6,0c2.29-.47,3.07-3.3,3.4-5.62l.54-3.85a1.57,1.57,0,0,0-.23-1.33c-.35-.36-.94-.28-1.45-.22-6,.7-9.68-5.53-15.52-5.18C184.31,350.34,173.08,352.45,172.87,357Z" transform="translate(-35.4 -8.88)" fill="#3e3e54"/><path d="M255.32,343c-1,.3-2.1.78-2.36,1.78a2.76,2.76,0,0,0,.51,2,12.2,12.2,0,0,0,7.7,5.06,35.76,35.76,0,0,0,9.42.51l4.21-.13a3.82,3.82,0,0,0,2-.45A3.61,3.61,0,0,0,278,349a37,37,0,0,0-.13-7.36c-.05-.38-.15-.82-.5-1s-.88.23-1.23.55c-2.89,2.61-6.87.44-10.11.06C262.58,340.91,258.55,342,255.32,343Z" transform="translate(-35.4 -8.88)" fill="#3e3e54"/><path d="M158,89.9s.53,1.15,1.33,3.18" transform="translate(-35.4 -8.88)" fill="none" stroke="#fff" stroke-miterlimit="10" stroke-width="0.58"/><path d="M161.62,99.43c4.6,14.18,10.28,41-4.9,58-21.42,24-34.41,21.42-29.21,42.84,3.58,14.77,9,31.4,12,40.3" transform="translate(-35.4 -8.88)" fill="none" stroke="#fff" stroke-miterlimit="10" stroke-width="0.58" stroke-dasharray="6.74 6.74"/><path d="M140.64,243.75c.72,2.07,1.15,3.26,1.15,3.26s-.86,1-2.15,2.7" transform="translate(-35.4 -8.88)" fill="none" stroke="#fff" stroke-miterlimit="10" stroke-width="0.58"/><path d="M135.58,255.31c-6.45,9.52-13.73,23.73,1,22.86,22.07-1.3,53.88-24.67,48.69-37.65s-20.78-20.13-26-31.17,11-6.49,20.12-20.12,2.6-18.83-.65-33.11,9.74-2,16.24-35.71-4.55-40.9-13-44.79c-6.17-2.85,9.19-16.12,17.89-23.05" transform="translate(-35.4 -8.88)" fill="none" stroke="#fff" stroke-miterlimit="10" stroke-width="0.58" stroke-dasharray="6.92 6.92"/><path d="M202.66,50.43c1.69-1.3,2.75-2.08,2.75-2.08" transform="translate(-35.4 -8.88)" fill="none" stroke="#fff" stroke-miterlimit="10" stroke-width="0.58"/><line x1="169.77" y1="31.03" x2="171.96" y2="46.61" fill="none" stroke="#fff" stroke-miterlimit="10" stroke-width="2.31"/><line x1="162.06" y1="38.01" x2="177" y2="38.01" fill="none" stroke="#fff" stroke-miterlimit="10" stroke-width="2.31"/><circle cx="146.97" cy="192.36" r="2.92" fill="#fff"/><circle cx="116.94" cy="149.02" r="2.92" fill="#fff"/></svg>