<?xml version="1.0" encoding="UTF-8"?>
<svg width="150px" height="246px" viewBox="0 0 150 246" version="1.1" xmlns="http://www.w3.org/2000/svg" xmlns:xlink="http://www.w3.org/1999/xlink">
    <!-- Generator: Sketch 52.5 (67469) - http://www.bohemiancoding.com/sketch -->
    <title>Scoreboard Logo</title>
    <desc>Scoreboard Logo</desc>
    <g id="Updates" stroke="none" stroke-width="1" fill="none" fill-rule="evenodd">
        <g id="LogoA_Gradient-Copy">
            <path d="M0,233.817183 L0,139.511489 C-9.94637869e-16,131.373427 6.5840478,124.776224 14.7058824,124.776224 L129.411765,124.776224 C137.533599,124.776224 144.117647,131.373427 144.117647,139.511489 L144.117647,233.817183 L138.352941,233.817183 C135.039233,233.817183 132.352941,236.503474 132.352941,239.817183 L132.352941,245.605395 L11.7647059,245.605395 L11.7647059,239.817183 C11.7647059,236.503474 9.07841438,233.817183 5.76470588,233.817183 L0,233.817183 Z" id="Bottom" fill="#4FCA9C" transform="translate(72.058824, 185.190809) rotate(180.000000) translate(-72.058824, -185.190809) "></path>
            <g id="Top">
                <path d="M0,109.040959 L0,14.7352647 C-9.94637869e-16,6.59720274 6.5840478,1.49493774e-15 14.7058824,0 L129.411765,0 C137.533599,-1.49493774e-15 144.117647,6.59720274 144.117647,14.7352647 L144.117647,109.040959 L132.352941,109.040959 L132.352941,120.829171 L11.7647059,120.829171 L11.7647059,109.040959 L0,109.040959 Z" id="Combined-Shape" fill="#62D8AC"></path>
                <path d="M16.4605857,4.9750943 L134.54052,5.80526753 C141.167773,5.85186112 146.502452,11.2620829 146.455858,17.8893361 C146.454406,18.0959067 146.44762,18.3024054 146.435507,18.5086256 L141.176471,108.040959 L0,108.040959 L4.38996585,16.4006047 C4.69796494,9.97113651 10.0239036,4.92984053 16.4605857,4.9750943 Z" id="Shadow" fill="#377778"></path>
                <path d="M0,109.343221 L5.88235294,23.1985963 C5.88235294,15.2692025 12.4664007,8.84115884 20.5882353,8.84115884 L135.294118,8.84115884 C143.415952,8.84115884 150,15.2692025 150,23.1985963 L144.117647,112.214708 L138.352941,112.214708 C135.039233,112.214708 132.352941,114.901 132.352941,118.214708 L132.352941,120.829171 L11.7647059,120.829171 L11.7647059,115.343221 C11.7647059,112.029512 9.07841438,109.343221 5.76470588,109.343221 L0,109.343221 Z" id="Combined-Shape" fill="#4FCA9C"></path>
            </g>
            <path d="M127.12546,178.415629 C127.12546,185.129505 125.771614,191.429418 123.063882,197.315556 C120.356151,203.201693 116.730598,208.351987 112.187117,212.76659 C107.643635,217.181194 102.365932,220.653043 96.3538497,223.182243 C90.3417676,225.711443 83.9855777,226.976024 77.2850892,226.976024 L63.1039894,226.976024 C56.4035009,226.976024 50.047311,225.711443 44.0352289,223.182243 C38.0231468,220.653043 32.745444,217.181194 28.2019621,212.76659 C23.6584802,208.351987 20.0329278,203.201693 17.3251962,197.315556 C14.6174645,191.429418 13.263619,185.129505 13.263619,178.415629 L13.263619,170.552156 L31.024414,167.655087 L31.024414,178.415629 C31.024414,182.830233 31.9193288,186.945869 33.7091853,190.762661 C35.4990418,194.579454 37.9084279,197.936342 40.9374158,200.833425 C43.9664037,203.730509 47.4772235,206.006754 51.4699803,207.662231 C55.4627371,209.317707 59.6619528,210.145433 64.0677534,210.145433 L76.4590057,210.145433 C80.8648064,210.145433 85.0410755,209.317707 88.9879386,207.662231 C92.9348017,206.006754 96.4226748,203.730509 99.4516628,200.833425 C102.480651,197.936342 104.890037,194.579454 106.679893,190.762661 C108.46975,186.945869 109.364665,182.830233 109.364665,178.415629 L109.364665,172.483535 C109.364665,165.677689 108.033766,160.021563 105.371928,155.514988 C102.71009,151.008414 99.1763236,147.168686 94.770523,143.99569 C90.3647224,140.822694 85.3853245,138.132585 79.83218,135.925284 C74.2790354,133.717982 67.6470588,129.723277 61.7647059,126.776224 L100,126.776224 C105.553145,129.581336 108.125517,131.901556 112.531318,135.994262 C116.937119,140.086967 120.470885,145.076313 123.132723,150.962451 C125.794561,156.848589 127.12546,164.022212 127.12546,172.483535 L127.12546,178.415629 Z" id="S" fill="#FFFFFF"></path>
            <path d="M50,118.829171 C41.3318328,115.882118 35.4101145,110.99071 31.1829547,106.989975 C26.9409832,102.989241 23.6038016,98.0918639 21.1726984,92.2976969 C18.728635,86.5035299 17.6800687,79.3758917 18.0366883,70.9145685 L18.1936776,67.1897655 C18.4766474,60.4758894 20.0385124,54.175977 22.888683,48.2898391 C25.7513385,42.4037012 29.5657484,37.2534078 34.3349214,32.8388043 C39.1204383,28.4242009 44.6604918,24.9523514 50.9524271,22.4231515 C57.2569449,19.8939516 63.9051102,18.6293706 70.8876858,18.6293706 L84.0875571,18.6293706 C91.0701326,18.6293706 97.5294253,19.8939516 103.456265,22.4231515 C109.37062,24.9523514 114.434099,28.4242009 118.643959,32.8388043 C122.837475,37.2534078 125.980296,42.4037012 128.075409,48.2898391 C130.158037,54.175977 130.898404,60.4758894 130.305896,67.1897655 L129.85543,72.2941251 L111.513326,75.1911942 L112.159753,67.1897655 C112.516404,62.775162 112.001943,58.6595258 110.612381,54.8427333 C109.217519,51.0259407 107.165103,47.6920454 104.453931,44.8409474 C101.735943,41.9898493 98.4687382,39.736596 94.6533579,38.0811197 C90.8326786,36.4256434 86.6404788,35.5979177 82.0806071,35.5979177 L70.6809848,35.5979177 C66.1211131,35.5979177 61.8209315,36.4256434 57.7842851,38.0811197 C53.7529378,39.736596 50.1680951,41.9898493 47.0308705,44.8409474 C43.900573,47.6920454 41.3897899,51.0259407 39.497225,54.8427333 C37.6099591,58.6595258 36.5588264,62.775162 36.3398209,67.1897655 L36.155036,70.9145685 C35.8402157,77.2605609 36.9267488,82.5947933 39.4074163,86.9174259 C41.8784151,91.2400584 45.2536552,94.9418318 49.5319344,98.0228571 C53.7988069,101.103882 58.6561031,103.770999 64.1046377,106.024286 C69.5426578,108.277573 89.4552118,116.470917 95.1586048,118.816175 L50,118.829171 Z" id="S" fill="#FFFFFF"></path>
        </g>
    </g>
</svg>
