<?xml version="1.0" encoding="utf-8"?>
<!-- Generator: Adobe Illustrator 19.1.0, SVG Export Plug-In . SVG Version: 6.00 Build 0)  -->
<svg version="1.1" id="Layer_1" xmlns:sketch="http://www.bohemiancoding.com/sketch/ns"
	 xmlns="http://www.w3.org/2000/svg" xmlns:xlink="http://www.w3.org/1999/xlink" x="0px" y="0px" viewBox="-20 21 103 103"
	 style="enable-background:new -20 21 103 103;" xml:space="preserve">
<style type="text/css">
	.st0{fill:#77D8D5;}
	.st1{fill:#C8EA86;}
	.st2{fill:#B2DD6C;}
	.st3{fill:#A5C654;}
	.st4{fill:#F6F7F7;}
	.st5{fill:#6D4122;}
	.st6{fill:#994710;}
	.st7{fill:#9AEFEA;}
	.st8{fill:#77A331;}
	.st9{fill:none;}
	.st10{fill:#648428;}
	.st11{fill:#8BC544;}
	.st12{fill:#A9D65B;}
	.st13{opacity:0.38;fill:#F9E48A;}
	.st14{fill:#F9E48A;}
	.st15{fill:#E0CEDF;}
</style>
<title>Slice 1</title>
<desc>Created with Sketch.</desc>
<g>
	<path class="st0" d="M32.7,92.3c17.6,0,31.6,4.4,40.7,8.4c5.4-8,8.6-17.7,8.6-28.1c0-13.5-5.3-25.8-14-34.9l-57,57
		C17.3,93.2,24.6,92.3,32.7,92.3z"/>
	<path class="st1" d="M11,94.6c-8.7,1.9-15.7,4.7-20.7,7.1c1.9,2.6,4,5,6.3,7.3L11,94.6z"/>
	<path class="st2" d="M11,94.6L-3.4,109c9.1,8.7,21.4,14,34.9,14c17.5,0,32.9-8.9,41.9-22.4c-9.1-4-23.1-8.4-40.7-8.4
		C24.6,92.3,17.3,93.2,11,94.6z"/>
</g>
<path class="st3" d="M33.9,96.5c-10.1,0.8-21,7.5-25.6,7.6s-10.8,1.6-4.4,2.5c6.4,0.9,21.1,1.4,14.8,3.4s-1.4,2.9,12.2,3.3
	c13.5,0.4,26.2-0.4,20.5-2c-5.7-1.6,16.2-4.1,11.3-6.4c-4.9-2.3-3.2-5.7-8.4-5.4c-5.2,0.3-3.9-2-9.1-2S33.9,96.5,33.9,96.5z"/>
<g>
	<g>
		<circle class="st4" cx="59.4" cy="65.6" r="5.4"/>
		<circle class="st4" cx="72.1" cy="62.9" r="2.7"/>
		<circle class="st4" cx="71.2" cy="67" r="2.7"/>
		<circle class="st4" cx="66.1" cy="67" r="2.7"/>
		<circle class="st4" cx="66.1" cy="62.2" r="5.4"/>
	</g>
	<path class="st4" d="M62.3,63.4c0,0-8.9,3.8-13.2,3.6c-4.3-0.2,14.9,4,19-1.4C72.1,60.2,62.3,63.4,62.3,63.4z"/>
</g>
<g>
	<path class="st5" d="M38.5,90.4c-0.1-0.5-0.2-1-0.4-1.5C36.3,82.8,38.7,77,38.7,77s1.3-3.3-4.3-3.3c-5.6,0-7.6,3.3-7.6,3.3
		s4.9,3.8,4.7,13.1c0,0.1,0,0.3,0,0.4c1.2,0.4,2.9,0.9,4.3,0.9C36.9,91.4,37.8,90.9,38.5,90.4z"/>
	<path class="st6" d="M39.3,99.7c-2.4-0.8,0.2-4-0.8-9.3c-0.8,0.5-1.6,1-2.7,1c-1.5,0-3.1-0.4-4.3-0.9c-0.4,8.9-8.7,11.8-8.7,11.8
		l-3.5,1.9c0,0,2.6,0.5,5.4,0.3c2.8-0.2,6.9-4.1,6.1-2.2c-0.7,1.9-6.3,4.4-3.3,4.8c3,0.4,5.6-2.5,5.6-2.5s1.8-2.2,4.3-1.6
		c2.7,0.6,6.1,0.9,9.1-0.6C46.3,102.3,41.9,100.5,39.3,99.7z"/>
</g>
<g>
	<path class="st7" d="M8.2,85.6c-2.7,0-1.3-5.2-4.3-7c-3.5-2.1,1.8-2.3,3.1-4.9c1.2-2.7-4.5-1.8-5.9-7c-1.4-5.2,0.4-5.3,4.9-5.9
		c4.5-0.6,3.5-1.2,8.2-4.9c4.7-3.7,9.6-2.1,9.6-2.1s-4.7-5.3-2.9-8.2c1.8-2.8,2.9-2.9,10.5-4.8c3.9-0.9,5,0.3,5.2,1.4
		c1.2-0.8,5,0.2,11.8,0.9c8.4,0.8-0.6,5.5,4.1,6.2c1.1,0.1,2.1,0.5,2.9,0.9L68,37.6C58.8,28,45.8,22,31.5,22C3.6,22-19,44.6-19,72.5
		c0,10.9,3.5,21,9.3,29.2c5-2.4,11.9-5.2,20.7-7.1l4.3-4.3c-0.4-0.2-0.9-0.3-1.4-0.4C11,89.7,10.8,85.6,8.2,85.6z"/>
	<path class="st8" d="M36.1,43.2c0,1.1,0.6,0.1,0.4-0.9C36.3,42.4,36.1,42.7,36.1,43.2z"/>
</g>
<g>
	<path class="st9" d="M53,48.3c1.2,0.2,2.2,0.5,3.1,1c1.6,0.8,2.7,2.1,3.3,3.5c0.2-1.7,0.2-3.5-0.2-5.5c-1.9,0-4.3-0.4-7.3-1.1
		C51.3,47.2,51,48.1,53,48.3z"/>
	<path class="st8" d="M40.8,82.6c2.5-1,6.3-1.3,13.2,0.7c1.1,0.3,2.2,0.6,3.3,0.9c1.4-3.2,2.7-6.2,4.1-8.7
		c-3.7-0.3-8.5-1.3-14.2-2.9C44.6,74.5,42.8,78.2,40.8,82.6z"/>
	<path class="st8" d="M33.9,74.5c1.6-0.7,2.8-2,3.6-3.5c-2.1,0.1-3.5,0.5-4.7,1.2l-14.3,14c0.8-0.1,2-0.2,3.7-0.2
		c1.1,0,2.2,0.1,3.1,0.2C27.8,80.6,30.2,76.2,33.9,74.5z"/>
	<path class="st10" d="M39.6,65.5l-6.8,6.7c1.2-0.7,2.6-1.1,4.7-1.2C38.6,69.1,39.3,67,39.6,65.5z"/>
	<path class="st8" d="M59.9,55.5c0-0.9-0.1-1.9-0.5-2.8c-0.1,1-0.4,2-0.7,2.8C59.1,55.6,59.5,55.6,59.9,55.5z"/>
	<path class="st11" d="M58.7,55.6c-2,0-4.7-0.4-7.8-1.2l-8.4,8.3c1.1,0.2,2.2,0.5,3.4,0.8c2.7,0.8,5.3,1.4,7.6,1.9
		c0.5-1.7,0.7-3,0.7-3S57.2,59.9,58.7,55.6z"/>
	<path class="st8" d="M42.5,62.7l-2.9,2.8c-0.3,1.5-1,3.6-2.1,5.5c2.3-0.1,5.3,0.3,9.3,1.5c0.1,0,0.2,0.1,0.3,0.1
		c0.6-0.5,1.2-0.8,1.8-1.1c2.5-1.1,3.9-3.8,4.6-5.9c-2.3-0.5-4.9-1.1-7.6-1.9C44.6,63.2,43.5,62.9,42.5,62.7z"/>
	<path class="st8" d="M54.1,62.5c0,0-0.1,1.3-0.7,3c5.3,1.1,9.4,1.5,12.1,1c-0.3-0.7-0.9-1.3-2.2-1.7c-3.1-1.1-4.2-5.2-3.5-8.4
		c0.1-0.3,0.1-0.5,0.1-0.8c-0.4,0-0.8,0.1-1.2,0.1C57.2,59.9,54.1,62.5,54.1,62.5z"/>
	<path class="st8" d="M56.1,49.3l-5.2,5.1c3.1,0.8,5.8,1.2,7.8,1.2c0.3-0.9,0.6-1.8,0.7-2.8C58.8,51.4,57.7,50.1,56.1,49.3z"/>
	<path class="st11" d="M37.5,71c-0.9,1.4-2.1,2.7-3.6,3.5c-3.7,1.7-6.1,6.1-8.5,11.7c6,0.7,8.1,3.3,10.5,0.9c1.4-1.4,2.5-3.4,5-4.5
		c2-4.4,3.8-8,6.3-10.1c-0.1,0-0.2-0.1-0.3-0.1C42.8,71.3,39.8,70.9,37.5,71z"/>
	<path class="st10" d="M57,84.8c-2.6,5.6-8.2,4.3-10.8,3.3c2,1.8,3,4.5,5.3,4.6c3.3,0.2,5.9-0.6,7.5-3.2s-1.1-3.3,2.4-4.3
		c0.1,0,0.2-0.1,0.2-0.1c-1.4-0.3-2.8-0.6-4.3-1C57.2,84.4,57.1,84.6,57,84.8z"/>
	<path class="st10" d="M22.2,85.9c-1.7,0-2.9,0.1-3.7,0.2l-3.4,3.4c-0.1,0.1-0.2,0.2-0.4,0.4l-1.5,1.5c2.4,1.1,4.5,3.8,7.1,2.2
		c2-1.2,2.8-3.5,3.9-4.9c0.4-0.9,0.7-1.7,1.1-2.6C24.4,86,23.4,85.9,22.2,85.9z"/>
	<path class="st10" d="M57,84.8c0.1-0.2,0.2-0.5,0.3-0.7c-1.1-0.3-2.2-0.6-3.3-0.9c-6.8-1.9-10.7-1.7-13.2-0.7
		c-0.7,1.5-1.4,3.1-2.1,4.7c0,0,0,0,0,0c0.9-0.6,1.8-0.9,4.2-0.7c1.4,0.2,2.4,0.7,3.2,1.5C48.8,89.1,54.4,90.4,57,84.8z"/>
	<path class="st10" d="M61.4,75.4c-1.3,2.5-2.6,5.5-4.1,8.7c1.5,0.4,2.9,0.7,4.3,1c3.3-0.9,5-2.4,4.8-6c-0.1-1.7-0.1-2.9-0.2-3.8
		C64.9,75.6,63.3,75.6,61.4,75.4z"/>
	<path class="st8" d="M61.4,75.4c1.9,0.2,3.6,0.2,4.9-0.1c-0.1-0.9-0.4-1.4-1.4-1.4c-1.8,0,2.5-1.2,1.6-3.8
		c-0.1-0.2-0.1-0.5-0.2-0.7C64.3,70.7,62.8,72.8,61.4,75.4z"/>
	<path class="st10" d="M53.5,65.5c-0.7,2.1-2,4.8-4.6,5.9c-0.6,0.3-1.2,0.7-1.8,1.1c5.7,1.6,10.5,2.6,14.2,2.9
		c1.4-2.7,2.9-4.8,4.9-6c-0.3-1.2-0.3-2.2-0.7-3C62.9,67,58.8,66.6,53.5,65.5z"/>
	<path class="st8" d="M40.8,82.6c-2.6,1.1-3.7,3.1-5,4.5c-2.3,2.4-4.5-0.2-10.5-0.9c-0.4,0.8-0.7,1.7-1.1,2.6
		c0.6-0.8,1.4-1.3,2.4-1.2c3,0.3,5.4,2.6,8.9,1.5c1.7-0.5,2.4-1.2,3.2-1.8c0,0,0,0,0,0C39.5,85.6,40.2,84.1,40.8,82.6z"/>
	<path class="st8" d="M15.1,89.5l-0.4,0.4C14.9,89.8,15,89.6,15.1,89.5z"/>
	<path class="st8" d="M36,40.9c-0.3,0.2-0.4,0.5-0.5,0.9C35.5,43,36.2,42,36,40.9z"/>
	<path class="st8" d="M40,63.4c0,0-0.1,0.9-0.4,2.1l2.9-2.8c-0.5-0.1-1.1-0.2-1.6-0.3C40.3,63,40,63.4,40,63.4z"/>
	<path class="st12" d="M29.3,56.3c2.3-2.8,3.6-7.7,15.1-3.8c0.5,0.2,0.9,0.3,1.4,0.5c0.6-2.5,0.7-5.4,0-8.5c0,0,0,0,0,0
		c-8.2-2.1-9.3,1.3-11.1,3.3c-0.8,0.9-1.6,0.9-2.6,0.6c-1.3,1.7-2.3,2.7-2.3,2.7s-0.3,3.2-1.7,6.2C28.5,57.1,28.9,56.8,29.3,56.3z"
		/>
	<path class="st11" d="M40,63.4c0,0,0.4-0.3,0.9-1c-9.3-1.5-10.9,2.5-13.2,4.9c-2.1,2.2-4.1,0.3-8.9-0.7c-1.5,2.3-2.9,5.2-4.2,8.4
		c0.2,0,0.3,0,0.5,0c8.4,0,10.9,3.9,13.6,1.1c1.2-1.3,2.2-2.9,4.2-4.1l6.8-6.7C39.9,64.2,40,63.4,40,63.4z"/>
	<path class="st12" d="M42.5,62.7l8.4-8.3c-1.6-0.4-3.3-0.9-5.1-1.5c-1,4.6-3.5,7.9-4.9,9.5C41.4,62.5,41.9,62.6,42.5,62.7z"/>
	<path class="st10" d="M15.1,89.5l3.4-3.4C15.8,86.6,16.8,87.8,15.1,89.5z"/>
	<path class="st8" d="M27.7,67.3c2.3-2.4,3.9-6.4,13.2-4.9c1.4-1.5,3.9-4.9,4.9-9.5c-0.5-0.2-0.9-0.3-1.4-0.5
		c-11.5-3.9-12.8,1-15.1,3.8c-0.4,0.5-0.9,0.8-1.3,1c-0.9,2-2.3,3.9-4.4,4.8c-1.9,0.9-3.5,2.5-4.9,4.6
		C23.6,67.6,25.6,69.6,27.7,67.3z"/>
	<path class="st8" d="M6.6,79.8c4.3-2.9,0.2-4.6,7.9-4.7c1.4-3.2,2.7-6.1,4.2-8.4c-1.3-0.3-2.8-0.4-4.7-0.4c-8.4,0-4.1,1.7-8.5,4.7
		c-0.9,0.6-1.8,0.8-2.7,0.8c1.1,0.6,1.9,1.1,1.3,2.3c-1.3,2.8-7,3-3.3,5.2c0.5,0.3,0.9,0.7,1.2,1.1C3.7,80.7,5.3,80.7,6.6,79.8z"/>
	<path class="st11" d="M11.7,81.8c1-2.3,1.9-4.5,2.8-6.6c-7.7,0.1-3.6,1.8-7.9,4.7c-1.4,0.9-2.9,0.9-4.4,0.5c1.6,2.3,1,6.2,3.4,6.2
		c0.3,0,0.6,0.1,0.9,0.2C8.5,86.1,10.5,84.7,11.7,81.8z"/>
	<path class="st12" d="M5.7,70.9c4.4-3,0-4.7,8.5-4.7c1.8,0,3.3,0.2,4.7,0.4c1.4-2.1,3-3.7,4.9-4.6c2.1-1,3.5-2.9,4.4-4.8
		c-1.9,0.5-4.3-2-9.9-2c-7,0-3.4,1.7-7,4.7c-1.5,1.2-3.3,0.8-4.9-0.1c-0.7,0.3-1.6,0.4-3,0.6c-4.8,0.6-6.8,0.8-5.3,6.2
		c0.9,3.2,3.4,4.2,5,5.1C3.9,71.7,4.8,71.5,5.7,70.9z"/>
	<path class="st10" d="M13.8,90.6c-0.4,0.3-0.8,0.4-1.2,0.5c0.2,0.1,0.4,0.1,0.6,0.2l1.5-1.5C14.5,90.1,14.2,90.4,13.8,90.6z"/>
	<path class="st8" d="M14.8,89.9l0.4-0.4c1.6-1.7,0.7-2.9,3.4-3.4l14.3-14c-2,1.1-3,2.8-4.2,4.1c-2.7,2.8-5.2-1.1-13.6-1.1
		c-0.2,0-0.4,0-0.5,0c-0.9,2.1-1.8,4.3-2.8,6.6c-1.3,2.9-3.2,4.3-5.2,4.9c2,0.8,2.5,4.2,5.2,4.4c0.3,0,0.6,0.1,0.9,0.2
		c0.4-0.1,0.8-0.3,1.2-0.5C14.2,90.4,14.5,90.1,14.8,89.9z"/>
	<path class="st11" d="M47.4,44.9c1.6,0.5,3.1,0.9,4.5,1.2c0.8-1.7,2.2-3.7-3.2-4.2c-1.2-0.1-2.3-0.2-3.3-0.4c0,0.9,0.2,1.8,0.4,2.9
		C46.3,44.5,46.8,44.7,47.4,44.9z"/>
	<path class="st8" d="M45.7,44.4C45.8,44.4,45.8,44.4,45.7,44.4c0.7,3.2,0.6,6.1,0.1,8.5c1.8,0.6,3.5,1.1,5.1,1.5l5.2-5.1
		c-0.9-0.5-1.9-0.8-3.1-1c-2-0.3-1.7-1.2-1.2-2.3c-1.4-0.3-2.9-0.8-4.5-1.2C46.8,44.7,46.3,44.5,45.7,44.4z"/>
	<path class="st11" d="M34.7,47.7c1.8-2,2.9-5.4,11.1-3.3c-0.2-1.1-0.4-2-0.4-2.9c-5.2-0.6-8.2-1.3-9.3-0.6c0.2,1.1-0.5,2.1-0.5,0.9
		c0-0.4,0.2-0.7,0.5-0.9c0-0.3-0.2-0.5-0.3-0.8c-0.7,3.5-2.3,6.3-3.6,8.1C33.1,48.6,33.9,48.6,34.7,47.7z"/>
	<path class="st12" d="M25.2,46.9c3.4,0,5.4,1,6.9,1.4c1.3-1.9,2.9-4.7,3.6-8.1c-0.6-0.8-2.1-1.4-5.3-0.6c-8.1,1.9-9.2,2-11.2,5
		c-1,1.5-0.2,3.6,0.8,5.3C21.9,48,19.9,46.9,25.2,46.9z"/>
	<path class="st11" d="M11.1,59.9c3.6-3,0-4.7,7-4.7c5.6,0,8,2.5,9.9,2c1.4-3,1.7-6.2,1.7-6.2s1.1-1,2.3-2.7
		c-1.5-0.4-3.5-1.4-6.9-1.4c-5.3,0-3.3,1.1-5.2,2.9c1,1.8,2.3,3.2,2.3,3.2S17,51.4,12,55.2c-3.6,2.8-4.1,3.9-5.8,4.5
		C7.8,60.7,9.6,61.1,11.1,59.9z"/>
</g>
<ellipse class="st13" cx="15.3" cy="70.9" rx="1.6" ry="1.2"/>
<ellipse class="st13" cx="26.7" cy="73.5" rx="1.3" ry="1"/>
<ellipse class="st14" cx="17.4" cy="58.8" rx="1.4" ry="0.9"/>
<ellipse class="st14" cx="4.8" cy="66.1" rx="1.7" ry="0.6"/>
<ellipse class="st14" cx="42.5" cy="48.7" rx="1.7" ry="1.2"/>
<ellipse class="st13" cx="36.9" cy="56.2" rx="1.9" ry="1"/>
<ellipse class="st13" cx="6.6" cy="80.1" rx="1.8" ry="1.6"/>
<ellipse class="st13" cx="50.8" cy="53.8" rx="1.8" ry="1.4"/>
<ellipse class="st13" cx="33.9" cy="85.6" rx="1.9" ry="1.5"/>
<ellipse class="st13" cx="49.7" cy="78.4" rx="1.7" ry="1.1"/>
<ellipse class="st13" cx="43.9" cy="69" rx="1.4" ry="0.6"/>
<ellipse class="st13" cx="28.5" cy="81.6" rx="1.8" ry="1"/>
<ellipse class="st13" cx="55.4" cy="61" rx="1.9" ry="1.1"/>
<ellipse class="st13" cx="59.6" cy="74.4" rx="0.9" ry="1"/>
<ellipse class="st13" cx="53.5" cy="87.9" rx="0.9" ry="0.5"/>
<ellipse class="st13" cx="14.3" cy="85" rx="1.7" ry="0.9"/>
<ellipse class="st13" cx="-3.3" cy="104.2" rx="1.2" ry="0.8"/>
<ellipse class="st13" cx="3.5" cy="99.3" rx="1.3" ry="0.5"/>
<g>
	<g>
		<circle class="st4" cx="0" cy="47.8" r="5.4"/>
		<circle class="st4" cx="12.7" cy="45.1" r="2.7"/>
		<circle class="st4" cx="11.8" cy="49.2" r="2.7"/>
		<circle class="st4" cx="6.7" cy="49.2" r="2.7"/>
		<circle class="st4" cx="6.7" cy="44.4" r="5.4"/>
	</g>
	<path class="st4" d="M2.9,45.6c0,0-8.9,3.8-13.2,3.6s14.9,4,19-1.4S2.9,45.6,2.9,45.6z"/>
</g>
<ellipse class="st15" cx="9.7" cy="110.6" rx="1.3" ry="1.3"/>
<ellipse class="st15" cx="17.2" cy="101.2" rx="1.3" ry="1.4"/>
<ellipse class="st15" cx="45.9" cy="113.2" rx="1.2" ry="1.3"/>
<ellipse class="st15" cx="54.6" cy="103" rx="0.8" ry="1.2"/>
<ellipse class="st15" cx="67.8" cy="100.3" rx="1.2" ry="1.5"/>
<ellipse class="st15" cx="41.7" cy="95.3" rx="0.8" ry="1.2"/>
<ellipse class="st15" cx="27.2" cy="92.7" rx="0.5" ry="1.3"/>
</svg>
