<?xml version="1.0" encoding="utf-8"?>
<!-- Generator: Adobe Illustrator 19.1.0, SVG Export Plug-In . SVG Version: 6.00 Build 0)  -->
<svg version="1.1" id="Layer_1" xmlns:sketch="http://www.bohemiancoding.com/sketch/ns"
	 xmlns="http://www.w3.org/2000/svg" xmlns:xlink="http://www.w3.org/1999/xlink" x="0px" y="0px" viewBox="-138.1 345 102.5 102.5"
	 style="enable-background:new -138.1 345 102.5 102.5;" xml:space="preserve">
<style type="text/css">
	.st0{fill:#9BEAE3;}
	.st1{fill:#84D8CE;}
	.st2{fill:#90D690;}
	.st3{fill:#8FCC8F;}
	.st4{fill:#E8DCAA;}
	.st5{fill:#DDD2A2;}
	.st6{fill:#F26B60;}
	.st7{fill:none;}
	.st8{fill:#CEE0DB;}
	.st9{fill:#7FCCBE;}
	.st10{fill:#ED9685;}
	.st11{fill:#EAE5D3;}
	.st12{fill:#A3E8A5;}
	.st13{fill:none;stroke:#D8CFB6;stroke-miterlimit:10;}
	.st14{fill:#DDD19E;}
	.st15{fill:#23BCC1;}
	.st16{fill:#D8CFB6;}
	.st17{fill:#C9B977;}
	.st18{fill:#007C82;}
	.st19{fill:#5C6B66;}
	.st20{fill:none;stroke:#5C6B66;stroke-width:0.5;stroke-miterlimit:10;}
	.st21{fill:none;stroke:#5C6B66;stroke-width:0.25;stroke-miterlimit:10;}
	.st22{fill:#F7F7F7;}
</style>
<title>Slice 1</title>
<desc>Created with Sketch.</desc>
<g>
	<path class="st0" d="M-51.4,360.9c-9.1-9-21.7-14.6-35.5-14.6c-24.1,0-44.2,16.8-49.3,39.4h61.5L-51.4,360.9z"/>
	<path class="st1" d="M-37.6,385.6c-2.2-9.6-7-18.1-13.8-24.7l-23.3,24.7H-37.6z"/>
	<path class="st2" d="M-136.2,385.6c-0.8,3.6-1.3,7.3-1.3,11.2c0,14.9,6.5,28.4,16.8,37.6l45.9-48.8H-136.2z"/>
	<path class="st3" d="M-37.6,385.6h-37.1l-45.9,48.8c8.9,8,20.8,12.9,33.7,12.9c27.9,0,50.5-22.6,50.5-50.5
		C-36.4,393-36.8,389.2-37.6,385.6z"/>
</g>
<g>
	<path class="st4" d="M-101.7,396c32-13.1-36.2-1.3-28-5.8c8.2-4.5,10.4-4.5,10.4-4.5h-2.2c0,0-13.3,3.5-11.1,7.1
		c2.2,3.6,33.4-4.2,20.2,1.4c-9.9,4.2-11.5,18.8,0.3,31.2l14.2-15.1C-109,406.2-114.4,401.2-101.7,396z"/>
	<path class="st5" d="M-51.4,420.4c0,0-29.6-4.1-46.4-10.2l-14.2,15.1c3.9,4.1,9.3,7.9,16.3,11.1c28.3,12.8,23.8-6,23.8-6
		L-51.4,420.4z"/>
</g>
<path class="st6" d="M-71.2,417.3c0,0,0.1,4.5,0.8,5.2s3.5,2.1,3.6-0.7c0.2-2.8,1.3-4.4,1.3-4.4h-4.9H-71.2z"/>
<g>
	<circle class="st7" cx="-87.1" cy="395.7" r="48"/>
</g>
<path class="st7" d="M-51,394.7c0.2,0.1,0.3,0.1,0.3,0.1C-50.8,394.8-50.9,394.7-51,394.7z"/>
<path class="st8" d="M-51.8,394.4c0,0,0.3,0.1,0.8,0.3C-51.2,394.6-51.5,394.5-51.8,394.4z"/>
<g>
	<ellipse class="st9" cx="-101.7" cy="411" rx="1" ry="1.8"/>
	<ellipse class="st9" cx="-98.9" cy="420" rx="1" ry="1.8"/>
	<ellipse class="st9" cx="-112.4" cy="401.1" rx="1.1" ry="1.3"/>
	<ellipse class="st9" cx="-105.4" cy="395.1" rx="0.8" ry="1.1"/>
	<ellipse class="st9" cx="-98.9" cy="392.5" rx="0.5" ry="0.7"/>
	<ellipse class="st9" cx="-104" cy="390.9" rx="0.3" ry="0.5"/>
	<ellipse class="st9" cx="-110.7" cy="391.1" rx="0.3" ry="0.5"/>
	<ellipse class="st10" cx="-95.2" cy="416.3" rx="0.9" ry="1.9"/>
	<ellipse class="st10" cx="-109.7" cy="406.3" rx="0.9" ry="1.6"/>
	<ellipse class="st10" cx="-107.9" cy="394.8" rx="0.9" ry="1"/>
	<ellipse class="st10" cx="-101.9" cy="392.2" rx="0.4" ry="0.4"/>
	<ellipse class="st10" cx="-105.8" cy="390.7" rx="0.4" ry="0.4"/>
</g>
<g>
	<path class="st11" d="M-42.9,422.5c-8.2-3.6-15.4-5.5-20.9-6.5c-1-0.1-2-0.2-2.9-0.3c-5.7,1.3-10.9,2.9-15.6,4.7
		c-4,5.6-10.2,15.2-14.7,26c3.4,0.7,6.9,1.1,10.5,1.1C-67.9,447.5-51.7,437.5-42.9,422.5z"/>
	<path class="st12" d="M-114.4,439.1c5.2,3.4,11,5.9,17.3,7.3c4.5-10.9,10.7-20.5,14.7-26.2C-97.7,425.9-108.1,433.4-114.4,439.1z"
		/>
	<path class="st12" d="M-63.9,416c7.1,0.9,14.1,2.6,21.4,5.7c1.8-3.1,3.2-6.4,4.3-9.9c-10.7,0.4-20.2,1.7-28.6,3.7
		C-65.9,415.7-64.9,415.8-63.9,416z"/>
	<line class="st13" x1="-87.1" y1="436" x2="-82.4" y2="436"/>
	<line class="st13" x1="-58.2" y1="424.3" x2="-53.5" y2="424.3"/>
</g>
<g>
	<path class="st14" d="M-57.8,380.8c-1.5-0.8-3.1-1.4-4.9-2c0,1.8,0.7,4.1,0.7,4.1s1.1,2,0.7,3.8C-59.4,385.3-58.1,383.2-57.8,380.8
		z"/>
	<path class="st14" d="M-62.9,371.4c0,0,1.1,2.8,1,4.6c1.4,0.3,2.7,0.7,3.9,1.1C-58.7,374.5-60.6,372.4-62.9,371.4z"/>
	<path class="st4" d="M-62.9,371.4c-1.1-0.5-2.4-0.8-3.7-0.8c-2.7,0-5.1,1.2-6.8,3.1c3,0.5,7.4,1.3,11.4,2.3
		C-61.8,374.1-62.9,371.4-62.9,371.4z"/>
</g>
<g>
	<path class="st4" d="M-87.1,393.5c-6.3,4.1,1.7,6.6,4.5,7.3c0.4-1.1,0.9-2.3,1.4-3.3c-1.1-0.6-4.6-1.8-2.3-2.5
		c1.8-0.6,3.9-1.8,4.8-2l-0.9-2.8C-82.3,391-85,392.1-87.1,393.5z"/>
	<path class="st4" d="M-52.3,388.3c-0.6-0.2-1.2-0.4-1.8-0.5l-2.7,4.2c3-0.1,6.7,0,6.4,1.5c0,0.1,0,0.2-0.1,0.3c1,0.1,2,0.2,2.8,0.4
		C-46.6,391.3-46.1,390.3-52.3,388.3z"/>
	<path class="st4" d="M-54.1,394.6c0,0-1.7,0.8-1.7,1.4c-0.1,0.6-0.1,1.2,0.3,1.5c0.4,0.3,1-0.3,1-0.3s-1.1,1.3,0.4,1.5
		c1.5,0.1,1.4-0.8,1.5-1.2c0.2-0.3-1,2.5,0.7,1.9s2.2-0.7,2.8-1.5s1-1.5,1-1.5c0-0.1,0.1-0.3,0.1-0.4c-0.9-0.5-1.9-0.9-2.7-1.2
		c-0.1,0-0.2,0-0.3-0.1c-0.5-0.2-0.8-0.3-0.8-0.3c-0.3-0.1-0.7-0.2-1.3-0.1C-53.3,394.4-54.1,394.6-54.1,394.6z"/>
	<path class="st15" d="M-50.7,394.8c0.8,0.3,1.8,0.7,2.7,1.2c0.2-0.7,0.4-1.3,0.5-1.8c-0.9-0.1-1.9-0.3-2.8-0.4
		C-50.5,394.6-50.5,394.8-50.7,394.8z"/>
	<path class="st4" d="M-81.7,401.3c0,0,2.4,1.5,3,1.5s2.7,0.4,2.9-0.8c0.2-1.2,2.5-3.1,0.8-3.7s-1.2-0.1-1.2-0.4s0.6-0.6-0.4-1
		c-1-0.5-1.1,0.4-1.4,0.5c-0.3,0.1-0.8-0.1-2.1,0.1C-81.4,397.8-81.7,401.3-81.7,401.3z"/>
	<path class="st15" d="M-81.7,401c0,0,0,0.1,0.1,0.3c0.4-1.3,1.1-2.6,1.6-3.7c-0.4,0.1-0.8,0-1.1-0.1c-0.5,1-1,2.2-1.4,3.3
		C-82.1,400.9-81.7,401-81.7,401z"/>
	<path class="st16" d="M-67.9,424.3c-2.2,0-2.6,0.6-2.6,1.2s3,0,1.5,1.5c-1.5,1.5-1.9,5,0,5s-0.9,1.7,4.2,1.7s3-4.3,3-4.3
		S-60.7,424.3-67.9,424.3z"/>
	<path class="st6" d="M-66.7,426.1c0,0-3.3,2.9-1.8,4.3c1.4,1.5,0,2.4,3.6,2.3s1.8-4,1.8-4s-0.8-2.9-1.8-2.6
		C-66,426.5-66.7,426.1-66.7,426.1z"/>
	<g>
		<path class="st4" d="M-72.8,416.1c0.4,1.7,1.2,4.2,2.4,4.1c1.3-0.1,3.1-0.4,4.5-1.4c-0.1-0.2-0.2-0.4-0.3-0.6
			C-67.6,415.5-70.8,415.7-72.8,416.1z"/>
		<path class="st17" d="M-64.6,417.4c1.3-2.3,3.9-6.4-1.2-6.2c-5.1,0.2-7.4,3.3-7.4,3.3s0.1,0.7,0.3,1.7c2-0.5,5.2-0.7,6.6,2.2
			c0.1,0.2,0.2,0.4,0.3,0.6C-65.4,418.5-64.9,418-64.6,417.4z"/>
	</g>
	<path class="st4" d="M-66.1,413.2c0,0-1.2,10.1-0.7,12.9c0.5,2.8,1.8,0,1.8,0s2.7-11.4,2.3-12.9C-63.1,411.6-66.1,413.2-66.1,413.2
		z"/>
	<g>
		<path class="st6" d="M-61.4,406.8l-4.6,1.4c0,0-1.1,3-1.9,6.6c1.8-0.4,4.2-0.8,6.5-1.2C-61.3,409.9-61.4,406.8-61.4,406.8z"/>
	</g>
	<path class="st6" d="M-73.5,408c0,0-0.8,5.3,0.7,6.8c1.5,1.5,7.5-1.9,4.8-4S-73.5,408-73.5,408z"/>
	<path class="st18" d="M-65.1,387.2c0,0-7.5,0.8-14.5,3l0.9,2.8c1.3-0.2,2.3,0.1,3.2,0.1c3.9,0,2.2,12.3,1.5,16.2
		c-0.7,3.6,10.9,5.1,13.8,0s0-16.9,0-16.9s1.6-0.2,3.5-0.3l2.7-4.2C-60.6,386.1-65.1,387.2-65.1,387.2z"/>
	<path class="st19" d="M-72,371.6c0,0-0.2,1,2.7,1.7c2.9,0.7,3.2-1.7,5.1-1.7c1.9,0,4.9,3.9,4,5.5c-0.9,1.6-0.4,5.3-0.4,5.3
		s2.4-0.3,2,1.5c-0.4,1.8,2-3.8,0.8-4.8c-1.2-1,1.5-2.6-1.1-5.2s-3.1-3.2-7.1-3.2C-70.1,370.6-72,371.6-72,371.6z"/>
	<path class="st15" d="M-57.9,377c-4.9-1.5-11.3-2.7-15.4-3.4c-0.6,0.7-1.1,1.4-1.4,2.3c0,0.1,0,0.2,0,0.3c4,0.5,11.7,1.7,17,4.6
		c0.1-0.4,0.1-0.8,0.1-1.3C-57.5,378.7-57.6,377.8-57.9,377z"/>
	<path class="st20" d="M-63.2,383.5"/>
	<path class="st20" d="M-71.3,385.3"/>
</g>
<path class="st4" d="M-61.9,382.9c0,0-0.7-2.3-0.7-4.1c-4.5-1.5-9.3-2.2-12.2-2.5c0.1,0.7,0.1,1.3,0.2,1.6c0.3,1.1-0.3,2.5-0.6,4.2
	c1.1,3.7,4.5,6.4,8.6,6.4c2,0,3.9-0.7,5.4-1.8C-60.8,384.9-61.9,382.9-61.9,382.9z"/>
<path class="st21" d="M-71.3,385.3c0,0,5.2,1.5,8.1-1.9"/>
<ellipse transform="matrix(0.9957 9.244572e-02 -9.244572e-02 0.9957 35.0414 7.0707)" class="st4" cx="-58.8" cy="381.8" rx="1.2" ry="2.3"/>
<g>
	<g>
		<circle class="st22" cx="-106.3" cy="367.5" r="4.8"/>
		<circle class="st22" cx="-95.1" cy="365.1" r="2.4"/>
		<circle class="st22" cx="-95.9" cy="368.7" r="2.4"/>
		<circle class="st22" cx="-100.4" cy="368.7" r="2.4"/>
		<circle class="st22" cx="-100.4" cy="364.5" r="4.8"/>
	</g>
	<path class="st22" d="M-103.7,365.6c0,0-7.9,3.3-11.7,3.2c-3.8-0.2,13.2,3.5,16.8-1.3C-95.1,362.7-103.7,365.6-103.7,365.6z"/>
</g>
</svg>
