<?xml version="1.0" standalone="no"?>
<!DOCTYPE svg PUBLIC "-//W3C//DTD SVG 20010904//EN"
 "http://www.w3.org/TR/2001/REC-SVG-20010904/DTD/svg10.dtd">
<svg version="1.0" xmlns="http://www.w3.org/2000/svg"
 width="984.000000pt" height="984.000000pt" viewBox="0 0 984.000000 984.000000"
 preserveAspectRatio="xMidYMid meet">
<metadata>
Created by potrace 1.11, written by Peter Selinger 2001-2013
</metadata>
<g transform="translate(0.000000,984.000000) scale(0.100000,-0.100000)"
fill="#000000" stroke="none">
<path d="M2360 9824 c-100 -26 -180 -73 -261 -154 -88 -87 -129 -156 -158
-260 -21 -74 -21 -83 -21 -2012 l0 -1938 143 0 c157 0 195 -11 251 -66 55 -55
70 -105 74 -256 l4 -138 2413 0 2413 0 4 93 c5 101 17 134 69 185 59 57 89 66
252 70 141 4 147 5 147 25 0 11 5 82 10 156 6 75 26 375 45 666 99 1507 147
2231 160 2423 8 117 15 250 15 295 0 143 -41 253 -141 379 -82 103 -135 179
-152 218 -24 57 -102 156 -159 201 -60 48 -153 94 -230 115 -81 21 -4797 20
-4878 -2z m3135 -744 c259 -29 449 -84 670 -195 359 -180 613 -431 787 -780
140 -279 198 -577 178 -910 -10 -155 -20 -245 -27 -245 -3 0 -163 -25 -355
-55 -193 -31 -353 -53 -356 -51 -2 3 1 83 8 178 18 236 9 416 -24 537 -56 199
-160 374 -309 518 -197 191 -432 302 -707 334 -147 17 -781 6 -879 -15 -582
-125 -1023 -579 -1101 -1132 -18 -133 -24 -393 -10 -504 48 -397 282 -710 725
-971 158 -93 375 -190 996 -445 l606 -249 -886 -3 -886 -2 -60 22 c-326 118
-698 405 -907 699 -71 98 -181 311 -216 414 -72 214 -96 382 -95 675 1 359 26
550 104 785 154 465 507 885 947 1129 253 139 521 227 797 261 134 16 866 20
1000 5z"/>
<path d="M2388 4708 c-5 -155 -16 -199 -66 -251 -57 -60 -93 -71 -254 -75
l-148 -4 0 -1930 c0 -2146 -5 -1982 68 -2123 51 -98 155 -200 252 -247 149
-73 -33 -68 2567 -68 2589 0 2408 -4 2553 66 103 51 213 161 264 264 70 144
66 9 66 2128 l0 1912 -128 0 c-155 0 -213 14 -267 67 -64 62 -75 98 -75 261
l0 142 -2414 0 -2414 0 -4 -142z m3601 20 c142 -80 260 -172 425 -329 315
-300 493 -643 561 -1079 22 -141 32 -645 16 -802 -24 -224 -76 -406 -176 -613
-199 -411 -524 -738 -930 -935 -150 -73 -322 -133 -485 -168 l-125 -27 -535 0
c-568 0 -581 1 -785 52 -726 180 -1325 801 -1465 1518 -24 123 -42 393 -38
560 l3 110 320 52 c176 28 334 54 352 58 l31 6 4 -313 c4 -303 5 -316 32 -413
139 -509 603 -904 1136 -965 154 -18 813 -8 910 14 265 61 488 184 681 376
215 214 340 469 370 751 16 149 6 522 -16 649 -47 266 -160 475 -370 685 -196
195 -397 321 -789 492 -148 64 -686 338 -686 349 0 2 338 4 751 4 l752 0 56
-32z"/>
</g>
</svg>
