<?xml version="1.0" encoding="UTF-8"?>
<svg width="85px" height="91px" viewBox="0 0 85 91" version="1.1" xmlns="http://www.w3.org/2000/svg" xmlns:xlink="http://www.w3.org/1999/xlink">
    <!-- Generator: Sketch 62 (91390) - https://sketch.com -->
    <title>Group 12</title>
    <desc>Created with Sketch.</desc>
    <g id="Symbols" stroke="none" stroke-width="1" fill="none" fill-rule="evenodd">
        <g id="ConnectBanner" transform="translate(-839.000000, -149.000000)">
            <g transform="translate(0.000000, -1.000000)" id="Actions">
                <g transform="translate(140.000000, 143.000000)">
                    <g id="EditModerate" transform="translate(683.000000, 7.000000)">
                        <g id="Group-12" transform="translate(16.000000, 0.000000)">
                            <g id="user-group" fill="#4FCA9E" stroke="#4FCA9C" stroke-width="3">
                                <path d="M70.5,44.5 L66.9367855,44.5 C65.5324935,41.8584953 63.4875722,39.6267542 61.0174857,38.0236969 C58.3592126,36.2985088 55.209115,35.3 51.8319328,35.3 C53.7355702,32.2831334 55.2225405,28.5606457 55.5183866,24.5 L63.0364146,24.5 C65.010071,24.5 66.9035522,25.3098107 68.2992949,26.7423661 C69.7094932,28.1897584 70.5,30.1551293 70.5,32.2 L70.5,44.5 Z M1.5,44.5 L1.5,32.2 C1.5,30.1551293 2.29050678,28.1897584 3.7007051,26.7423661 C5.09644776,25.3098107 6.989929,24.5 8.96358543,24.5 L16.4816134,24.5 C16.7774595,28.5606457 18.2644298,32.2831334 20.5839631,35.3 C16.7899128,35.3 13.6390124,36.2979642 10.9802895,38.0234443 C8.51105858,39.6259463 6.46681124,41.8572127 5.06288516,44.5 L1.5,44.5 Z M17.5791344,16.4458448 C15.5041558,16.2641662 13.9166966,15.4750654 12.7232669,14.2959569 C11.3509745,12.940132 10.5,11.0679508 10.5,9 C10.5,6.93204917 11.3509745,5.059868 12.7232669,3.70404311 C14.1021553,2.34170135 16.0070529,1.5 18.1093117,1.5 C19.9079854,1.5 21.5624236,2.11694783 22.8663278,3.14913761 C23.9255988,3.98767215 24.754292,5.09997197 25.2381002,6.3778672 C21.6727941,8.78292768 18.9463611,12.3113632 17.5791344,16.4458448 Z M59.2767331,14.2959569 C58.0173306,15.5402465 56.3191308,16.3502172 54.432535,16.4812482 C53.0690923,12.3312066 50.3369922,8.78926666 46.7612194,6.37718919 C47.2458345,5.09980216 48.074482,3.98760814 49.1336722,3.14913761 C50.4375764,2.11694783 52.0920146,1.5 53.8906883,1.5 C55.9929471,1.5 57.8978447,2.34170135 59.2767331,3.70404311 C60.6490255,5.059868 61.5,6.93204917 61.5,9 C61.5,11.0679508 60.6490255,12.940132 59.2767331,14.2959569 Z" id="Shape"></path>
                            </g>
                            <g id="user-group" transform="translate(9.000000, 9.000000)" stroke="#4FCA9C" stroke-width="3">
                                <path d="M11.25,33.5 L42.75,33.5 C45.3352943,33.5 47.8152424,34.528179 49.6440328,36.3614849 C51.4742092,38.1961802 52.5,40.6843038 52.5,43.2777778 L52.5,59.5 L1.5,59.5 L1.5,43.2777778 C1.5,40.6843038 2.52579081,38.1961802 4.35596721,36.3614849 C6.18475758,34.528179 8.66470574,33.5 11.25,33.5 Z M39.5,13.5 C39.5,16.812 38.1557988,19.8118808 35.9838398,21.9838398 C33.8118808,24.1557988 30.812,25.5 27.5,25.5 C24.188,25.5 21.1881192,24.1557988 19.0161602,21.9838398 C16.8442012,19.8118808 15.5,16.812 15.5,13.5 C15.5,10.188 16.8442012,7.18811917 19.0161602,5.01616017 C21.1881192,2.84420118 24.188,1.5 27.5,1.5 C30.812,1.5 33.8118808,2.84420118 35.9838398,5.01616017 C38.1557988,7.18811917 39.5,10.188 39.5,13.5 Z" id="Shape"></path>
                            </g>
                            <g id="pencil" transform="translate(41.000000, 47.000000)" fill="#757575" fill-rule="nonzero">
                                <path d="M0,31.4285714 L0,44 L12.5714286,44 L34.5714286,22 L22,9.42857143 L0,31.4285714 Z M31.4285714,0 L25.1428571,6.28571429 L37.7142857,18.8571429 L44,12.5714286 L31.4285714,0 Z" id="Shape"></path>
                            </g>
                        </g>
                    </g>
                </g>
            </g>
        </g>
    </g>
</svg>