<?xml version="1.0" encoding="UTF-8"?>
<svg width="72px" height="98px" viewBox="0 0 72 98" version="1.1" xmlns="http://www.w3.org/2000/svg" xmlns:xlink="http://www.w3.org/1999/xlink">
    <!-- Generator: Sketch 62 (91390) - https://sketch.com -->
    <title>NewTeam</title>
    <desc>Created with Sketch.</desc>
    <g id="Symbols" stroke="none" stroke-width="1" fill="none" fill-rule="evenodd">
        <g id="ConnectBanner" transform="translate(-535.000000, -142.000000)">
            <g transform="translate(0.000000, -1.000000)" id="Actions">
                <g transform="translate(140.000000, 143.000000)">
                    <g id="CreateNewTeams" transform="translate(364.000000, 0.000000)">
                        <g id="NewTeam" transform="translate(31.000000, 0.000000)">
                            <g id="user-group" fill="#4FCA9E">
                                <path d="M51.75,41 C54.7335,41 57.5955,42.1864222 59.706,44.3021333 C61.8165,46.4178444 63,49.2869111 63,52.2777778 L63,52.2777778 L63,55 L36,55 L36,70 L9,70 L9,70 L9,52.2777778 C9,49.2869111 10.1835,46.4178444 12.294,44.3021333 C14.4045,42.1864222 17.2665,41 20.25,41 L20.25,41 Z M54.0728291,23 L63.0364146,23 C65.4117647,23 67.6929972,23.9706 69.3736695,25.6956 C71.0543417,27.4206 72,29.762 72,32.2 L72,46 L66.0078431,46 C63.4890756,40.5628 58.0885154,36.8 51.8319328,36.8 L48,36.8 C51.7243697,33.4282 54.0728291,28.4924 54.0728291,23 Z M5.99215686,46 L0,46 C0,46 0,38.6032 0,32.2 C0,29.762 0.945658263,27.4206 2.62633053,25.6956 C4.3070028,23.9706 6.58823529,23 8.96358543,23 L17.9271709,23 C17.9271709,28.4924 20.2756303,33.4282 24,36.8 L20.1680672,36.8 C13.9114846,36.8 8.51092437,40.5582 5.99215686,46 Z M36.5,9 C43.952,9 50,15.048 50,22.5 C50,29.952 43.952,36 36.5,36 C29.048,36 23,29.952 23,22.5 C23,15.048 29.048,9 36.5,9 Z M18.687753,17.982 C18.4964575,17.9955 18.3051619,18 18.1093117,18 C13.0809717,18 9,13.968 9,9 C9,4.032 13.0809717,0 18.1093117,0 C22.4544534,0 26.0936235,3.015 27,7.038 C22.9418016,9.4365 19.9038462,13.347 18.687753,17.982 Z M45,7.038 C45.9063765,3.015 49.5455466,0 53.8906883,0 C58.9190283,0 63,4.032 63,9 C63,13.968 58.9190283,18 53.8906883,18 C53.6948381,18 53.5035425,17.9955 53.312247,17.982 C52.0961538,13.347 49.0581984,9.4365 45,7.038 Z" id="Shape"></path>
                            </g>
                            <g id="Group-13" transform="translate(22.000000, 48.000000)" fill="#757575">
                                <path d="M25,0 C38.8071187,0 50,11.1928813 50,25 C50,38.8071187 38.8071187,50 25,50 C11.1928813,50 0,38.8071187 0,25 C0,11.1928813 11.1928813,0 25,0 Z M27,11 L23,11 L23,23 L11,23 L11,27 L23,27 L23,39 L27,39 L27,27 L39,27 L39,23 L27,23 L27,11 Z" id="Combined-Shape"></path>
                            </g>
                        </g>
                    </g>
                </g>
            </g>
        </g>
    </g>
</svg>