<svg width="150" height="246" viewBox="0 0 150 246" xmlns="http://www.w3.org/2000/svg"><g fill="none" fill-rule="evenodd"><path d="M144.118 136.564v94.306c0 8.138-6.584 14.735-14.706 14.735H14.706C6.584 245.605 0 239.008 0 230.87v-94.306h5.765a6 6 0 0 0 6-6v-5.788h120.588v5.788a6 6 0 0 0 6 6h5.765z" fill="#4FCA9C"/><path d="M0 109.041V14.735C0 6.597 6.584 0 14.706 0h114.706c8.122 0 14.706 6.597 14.706 14.735v94.306h-11.765v11.788H11.765v-11.788H0z" fill="#62D8AC"/><path d="M16.46 4.975l118.08.83c6.628.047 11.962 5.457 11.916 12.084a12 12 0 0 1-.02.62l-5.26 89.532H0l4.39-91.64C4.698 9.97 10.024 4.93 16.46 4.975z" fill="#377778"/><path d="M0 109.343L5.882 23.2c0-7.93 6.584-14.358 14.706-14.358h114.706C143.416 8.841 150 15.27 150 23.2l-5.882 89.016h-5.765a6 6 0 0 0-6 6v2.614H11.765v-5.486a6 6 0 0 0-6-6H0z" fill="#4FCA9C"/><path d="M127.125 178.416c0 6.714-1.353 13.013-4.061 18.9-2.708 5.886-6.333 11.036-10.877 15.45-4.543 4.415-9.821 7.887-15.833 10.416-6.012 2.53-12.368 3.794-19.069 3.794H63.104c-6.7 0-13.057-1.265-19.069-3.794-6.012-2.529-11.29-6-15.833-10.415-4.544-4.415-8.17-9.565-10.877-15.451-2.708-5.887-4.061-12.186-4.061-18.9v-7.864l17.76-2.897v10.76c0 4.415.895 8.53 2.685 12.348a33.487 33.487 0 0 0 7.228 10.07c3.03 2.898 6.54 5.174 10.533 6.83 3.993 1.655 8.192 2.482 12.598 2.482h12.391c4.406 0 8.582-.827 12.529-2.483 3.947-1.655 7.435-3.931 10.464-6.829a33.487 33.487 0 0 0 7.228-10.07c1.79-3.817 2.685-7.933 2.685-12.347v-5.932c0-6.806-1.331-12.462-3.993-16.969-2.662-4.507-6.196-8.346-10.601-11.52-4.406-3.172-9.386-5.862-14.939-8.07-5.553-2.207-12.185-6.202-18.067-9.149H100c5.553 2.805 8.126 5.126 12.531 9.218 4.406 4.093 7.94 9.082 10.602 14.968 2.662 5.887 3.992 13.06 3.992 21.522v5.932zM50 118.83c-8.668-2.948-14.59-7.84-18.817-11.84-4.242-4-7.58-8.898-10.01-14.692-2.444-5.794-3.493-12.922-3.136-21.383l.157-3.725c.283-6.714 1.845-13.014 4.695-18.9 2.862-5.886 6.677-11.037 11.446-15.451 4.785-4.415 10.325-7.887 16.617-10.416 6.305-2.529 12.953-3.794 19.936-3.794h13.2c6.982 0 13.441 1.265 19.368 3.794 5.915 2.53 10.978 6.001 15.188 10.416 4.193 4.414 7.336 9.565 9.431 15.45 2.083 5.887 2.823 12.187 2.23 18.9l-.45 5.105-18.342 2.897.647-8.001c.356-4.415-.158-8.53-1.548-12.347-1.394-3.817-3.447-7.151-6.158-10.002-2.718-2.851-5.985-5.104-9.8-6.76-3.821-1.655-8.014-2.483-12.573-2.483h-11.4c-4.56 0-8.86.828-12.897 2.483-4.031 1.656-7.616 3.909-10.753 6.76a33.59 33.59 0 0 0-7.534 10.002C37.61 58.66 36.56 62.775 36.34 67.19l-.185 3.725c-.315 6.346.772 11.68 3.252 16.002 2.471 4.323 5.847 8.025 10.125 11.106 4.267 3.08 9.124 5.748 14.573 8.001 5.438 2.254 25.35 10.447 31.054 12.792L50 118.83z" fill="#FFF"/></g></svg>